<svg version="1.1" id="Layer_1" xmlns="http://www.w3.org/2000/svg" xmlns:xlink="http://www.w3.org/1999/xlink" x="0px" y="0px"
	 width="100%" viewBox="0 0 736 736" enable-background="new 0 0 736 736" xml:space="preserve">
<path fill="#000000" opacity="1.000000" stroke="none" 
	d="
M507.000000,737.000000 
	C338.000000,737.000000 169.500000,737.000000 1.000000,737.000000 
	C1.000000,491.666656 1.000000,246.333328 1.000000,1.000000 
	C246.333328,1.000000 491.666656,1.000000 737.000000,1.000000 
	C737.000000,246.333328 737.000000,491.666656 737.000000,737.000000 
	C660.500000,737.000000 584.000000,737.000000 507.000000,737.000000 
M73.066216,417.500000 
	C73.065544,452.824402 73.061584,488.148804 73.074471,523.473206 
	C73.075073,525.131165 72.872711,526.902100 73.361748,528.429321 
	C77.507469,541.375671 84.258858,552.608093 95.610016,560.534546 
	C103.939880,566.351196 113.111008,571.167542 123.306801,571.180298 
	C287.099915,571.385376 450.893311,571.325745 614.686646,571.313477 
	C616.176636,571.313354 617.746582,571.413208 619.144287,571.004761 
	C633.305847,566.866699 646.194824,560.686890 654.940857,548.080566 
	C660.011841,540.771423 664.836914,533.119690 664.848999,523.977844 
	C664.985107,420.669922 664.936218,317.361786 664.925293,214.053680 
	C664.925171,212.562042 665.091736,210.968765 664.648376,209.594559 
	C660.476868,196.662872 653.803345,185.385391 642.411133,177.478439 
	C634.067017,171.687073 624.919189,166.831253 614.718018,166.818573 
	C450.924927,166.615189 287.131531,166.673706 123.338219,166.693390 
	C121.691696,166.693588 119.969170,166.708771 118.410583,167.160324 
	C104.381927,171.224655 91.716240,177.467941 83.078941,189.912018 
	C77.604927,197.798630 73.035774,205.986008 73.043068,216.048965 
	C73.091484,282.865936 73.066994,349.682983 73.066216,417.500000 
z"/>
<path fill="#FCFCFC" opacity="1.000000" stroke="none" 
	d="
M73.066216,417.000000 
	C73.066994,349.682983 73.091484,282.865936 73.043068,216.048965 
	C73.035774,205.986008 77.604927,197.798630 83.078941,189.912018 
	C91.716240,177.467941 104.381927,171.224655 118.410583,167.160324 
	C119.969170,166.708771 121.691696,166.693588 123.338219,166.693390 
	C287.131531,166.673706 450.924927,166.615189 614.718018,166.818573 
	C624.919189,166.831253 634.067017,171.687073 642.411133,177.478439 
	C653.803345,185.385391 660.476868,196.662872 664.648376,209.594559 
	C665.091736,210.968765 664.925171,212.562042 664.925293,214.053680 
	C664.936218,317.361786 664.985107,420.669922 664.848999,523.977844 
	C664.836914,533.119690 660.011841,540.771423 654.940857,548.080566 
	C646.194824,560.686890 633.305847,566.866699 619.144287,571.004761 
	C617.746582,571.413208 616.176636,571.313354 614.686646,571.313477 
	C450.893311,571.325745 287.099915,571.385376 123.306801,571.180298 
	C113.111008,571.167542 103.939880,566.351196 95.610016,560.534546 
	C84.258858,552.608093 77.507469,541.375671 73.361748,528.429321 
	C72.872711,526.902100 73.075073,525.131165 73.074471,523.473206 
	C73.061584,488.148804 73.065544,452.824402 73.066216,417.000000 
M627.223022,381.500122 
	C627.227539,329.346375 627.259399,277.192596 627.216064,225.038895 
	C627.206177,213.151413 619.708801,205.628128 607.819946,205.634811 
	C448.525726,205.724380 289.231384,205.715698 129.937088,205.652435 
	C118.163803,205.647766 110.807480,213.156555 110.798958,224.781998 
	C110.728523,320.924957 110.728920,417.068054 110.798584,513.211060 
	C110.807014,524.846680 118.168823,532.351990 129.930069,532.347351 
	C289.224365,532.284424 448.518707,532.275391 607.812927,532.365540 
	C619.710327,532.372314 627.202148,524.847839 627.215515,512.968140 
	C627.264648,469.478851 627.227600,425.989502 627.223022,381.500122 
z"/>
<path fill="#000000" opacity="1.000000" stroke="none" 
	d="
M627.223022,382.000153 
	C627.227600,425.989502 627.264648,469.478851 627.215515,512.968140 
	C627.202148,524.847839 619.710327,532.372314 607.812927,532.365540 
	C448.518707,532.275391 289.224365,532.284424 129.930069,532.347351 
	C118.168823,532.351990 110.807014,524.846680 110.798584,513.211060 
	C110.728920,417.068054 110.728523,320.924957 110.798958,224.781998 
	C110.807480,213.156555 118.163803,205.647766 129.937088,205.652435 
	C289.231384,205.715698 448.525726,205.724380 607.819946,205.634811 
	C619.708801,205.628128 627.206177,213.151413 627.216064,225.038895 
	C627.259399,277.192596 627.227539,329.346375 627.223022,382.000153 
M382.541260,453.073456 
	C391.752716,445.066162 401.004639,437.104828 410.167328,429.042114 
	C430.504883,411.146149 450.804810,393.207336 471.106354,375.270508 
	C486.461609,361.703796 501.768066,348.081787 517.148315,334.543579 
	C528.520203,324.533722 540.033203,314.683929 551.378601,304.644440 
	C563.397156,294.009186 575.437927,283.391083 587.190857,272.466278 
	C595.440002,264.798370 592.870483,249.431152 583.704834,243.776917 
	C574.227417,237.930374 566.456360,239.248535 556.364685,248.196442 
	C535.764221,266.462128 515.178955,284.745148 494.529572,302.955383 
	C467.252686,327.010223 439.915131,350.996277 412.613708,375.023346 
	C398.136505,387.764252 383.680664,400.529449 369.037567,413.440308 
	C361.598053,406.823242 354.484253,400.438782 347.308685,394.124512 
	C327.297089,376.514893 307.235931,358.961578 287.239563,341.334686 
	C267.917206,324.301910 248.673248,307.180206 229.353592,290.144348 
	C213.623810,276.274017 197.837158,262.468140 182.067307,248.643311 
	C175.779770,243.131287 169.340210,238.332001 160.075180,240.910370 
	C152.087006,243.133423 144.482635,252.478241 145.354553,260.463135 
	C146.168396,267.916107 150.790207,273.314484 156.311707,278.101685 
	C173.653702,293.137451 190.938293,308.239960 208.176712,323.394379 
	C226.545151,339.542236 244.834869,355.779572 263.160309,371.976318 
	C278.666656,385.681396 294.145355,399.417908 309.690643,413.078613 
	C325.188446,426.697571 340.692596,440.310608 356.315063,453.785828 
	C364.360718,460.725586 373.578827,460.905884 382.541260,453.073456 
z"/>
<path fill="#FDFDFD" opacity="1.000000" stroke="none" 
	d="
M382.254791,453.305267 
	C373.578827,460.905884 364.360718,460.725586 356.315063,453.785828 
	C340.692596,440.310608 325.188446,426.697571 309.690643,413.078613 
	C294.145355,399.417908 278.666656,385.681396 263.160309,371.976318 
	C244.834869,355.779572 226.545151,339.542236 208.176712,323.394379 
	C190.938293,308.239960 173.653702,293.137451 156.311707,278.101685 
	C150.790207,273.314484 146.168396,267.916107 145.354553,260.463135 
	C144.482635,252.478241 152.087006,243.133423 160.075180,240.910370 
	C169.340210,238.332001 175.779770,243.131287 182.067307,248.643311 
	C197.837158,262.468140 213.623810,276.274017 229.353592,290.144348 
	C248.673248,307.180206 267.917206,324.301910 287.239563,341.334686 
	C307.235931,358.961578 327.297089,376.514893 347.308685,394.124512 
	C354.484253,400.438782 361.598053,406.823242 369.037567,413.440308 
	C383.680664,400.529449 398.136505,387.764252 412.613708,375.023346 
	C439.915131,350.996277 467.252686,327.010223 494.529572,302.955383 
	C515.178955,284.745148 535.764221,266.462128 556.364685,248.196442 
	C566.456360,239.248535 574.227417,237.930374 583.704834,243.776917 
	C592.870483,249.431152 595.440002,264.798370 587.190857,272.466278 
	C575.437927,283.391083 563.397156,294.009186 551.378601,304.644440 
	C540.033203,314.683929 528.520203,324.533722 517.148315,334.543579 
	C501.768066,348.081787 486.461609,361.703796 471.106354,375.270508 
	C450.804810,393.207336 430.504883,411.146149 410.167328,429.042114 
	C401.004639,437.104828 391.752716,445.066162 382.254791,453.305267 
z"/>
</svg>